<?xml version="1.0" encoding="utf-8"?>
<!-- Generator: Adobe Illustrator 17.1.0, SVG Export Plug-In . SVG Version: 6.00 Build 0)  -->
<!DOCTYPE svg PUBLIC "-//W3C//DTD SVG 1.1//EN" "http://www.w3.org/Graphics/SVG/1.1/DTD/svg11.dtd">
<svg version="1.1" id="Layer_1" xmlns="http://www.w3.org/2000/svg" xmlns:xlink="http://www.w3.org/1999/xlink" x="0px" y="0px"
	 viewBox="0 0 683.5 168" enable-background="new 0 0 683.5 168" xml:space="preserve">
<g>
	<path fill="#E5E5E5" d="M105.3,142l0.3-0.2c-0.1-0.1-0.2-0.1-0.3-0.2V142z"/>
	<path fill="#E5E5E5" d="M81.7,78.3l5.5-3.3c0.4-0.2,0.7-0.8,0.7-1.3v-7.2c0-0.5-0.3-0.7-0.7-0.4l-5.5,3.3c-0.4,0.2-0.7,0.8-0.7,1.3
		v7.2C80.9,78.3,81.3,78.5,81.7,78.3z"/>
	<path fill="#E5E5E5" d="M81.7,95.1l5.5-3.3c0.4-0.2,0.7-0.8,0.7-1.3v-7.2c0-0.5-0.3-0.7-0.7-0.4l-5.5,3.3c-0.4,0.2-0.7,0.8-0.7,1.3
		v7.2C80.9,95.2,81.3,95.4,81.7,95.1z"/>
	<path fill="#E5E5E5" d="M81.7,111.9l5.5-3.3c0.4-0.2,0.7-0.8,0.7-1.3v-7.2c0-0.5-0.3-0.7-0.7-0.4l-5.5,3.3
		c-0.4,0.2-0.7,0.8-0.7,1.3v7.2C80.9,112,81.3,112.2,81.7,111.9z"/>
	<path fill="#E5E5E5" d="M81.7,128.8l5.5-3.3c0.4-0.2,0.7-0.8,0.7-1.3v-7.2c0-0.5-0.3-0.7-0.7-0.4l-5.5,3.3
		c-0.4,0.2-0.7,0.8-0.7,1.3v7.2C80.9,128.8,81.3,129,81.7,128.8z"/>
	<path fill="#E5E5E5" d="M35.9,124.1l5.5-3.3c0.4-0.2,0.7-0.8,0.7-1.3v-7.2c0-0.5-0.3-0.7-0.7-0.4l-5.5,3.3
		c-0.4,0.2-0.7,0.8-0.7,1.3v7.2C35.2,124.1,35.5,124.3,35.9,124.1z"/>
	<path fill="#E5E5E5" d="M87.2,142.3c0.4-0.2,0.7-0.8,0.7-1.3v-7.2c0-0.5-0.3-0.7-0.7-0.4l-5.5,3.3c-0.4,0.2-0.7,0.8-0.7,1.3v7.2
		c0,0.5,0.3,0.7,0.7,0.4L87.2,142.3z"/>
	<path fill="#E5E5E5" d="M132.8,91.7l-5.5,3.3c-0.4,0.2-0.7,0.8-0.7,1.3v7.2c0,0.5,0.3,0.7,0.7,0.4l5.5-3.3c0.4-0.2,0.7-0.8,0.7-1.3
		v-7.2C133.5,91.6,133.2,91.4,132.8,91.7z"/>
	<path fill="#E5E5E5" d="M132.8,108.5l-5.5,3.3c-0.4,0.2-0.7,0.8-0.7,1.3v7.2c0,0.5,0.3,0.7,0.7,0.4l5.5-3.3
		c0.4-0.2,0.7-0.8,0.7-1.3v-7.2C133.5,108.4,133.2,108.2,132.8,108.5z"/>
	<path fill="#E5E5E5" d="M141.9,38L86.3,5.9c-2.4-1.4-5.6-2.2-8.9-2.2c-3.3,0-6.4,0.8-8.9,2.2L13,38c-5.1,2.9-8.9,9.5-8.9,15.4v64.2
		c0,5.8,3.8,12.4,8.9,15.4L68.6,165c2.4,1.4,5.6,2.2,8.9,2.2c3.3,0,6.4-0.8,8.9-2.2l55.6-32.1c5.1-2.9,8.9-9.5,8.9-15.4V53.4
		C150.8,47.5,147,40.9,141.9,38z M49.5,142l-31.3-18.1c-1.8-1.1-3.7-4.2-3.7-6.3v-16.3l17.4-10.1c0.1,0,0.1,0,0.2,0l17.4,10.1V142z
		 M94.9,148l-13.2,7.6l-0.6,0.3c-0.9,0.5-2.2,0.8-3.7,0.8c-1.4,0-2.8-0.3-3.7-0.8l-0.6-0.3L59.9,148V59.2c0,0,0.1-0.1,0.1-0.1
		l17.2-9.9l4.5,2.4l13.2,7.6c0,0,0.1,0.1,0.1,0.1L94.9,148L94.9,148z M140.4,117.6c0,2.1-1.8,5.3-3.7,6.3l-31.1,17.9l-0.3,0.2v-0.4
		V84.1l17.4-10.1c0.1,0,0.1,0,0.2,0l17.5,10.1V117.6z M140.4,72.1L127.9,65c-3-1.7-7.2-1.7-10.2,0l-12.4,7.1V59
		c0-3.5-2.1-7.1-5.1-8.8l-14-7.9c0,0-4.1-2.4-9-2.4c-4.8,0-8.6,2.3-8.6,2.3l-14,8c-3,1.7-5.1,5.4-5.1,8.8v30.2L37.1,82
		c-3-1.7-7.2-1.7-10.2,0l-12.4,7.1V53.4c0-2.1,1.8-5.3,3.7-6.3l55.6-32.1c0.9-0.5,2.2-0.8,3.7-0.8c1.4,0,2.8,0.3,3.7,0.8L136.7,47
		c1.8,1.1,3.7,4.2,3.7,6.3L140.4,72.1L140.4,72.1z"/>
</g>
<g>
	<path fill="#3A9CCE" d="M101.2,139.1l0.3-0.2c-0.1-0.1-0.2-0.1-0.3-0.2V139.1z"/>
	<path fill="#3A9CCE" d="M77.5,75.4l5.5-3.3c0.4-0.2,0.7-0.8,0.7-1.3v-7.2c0-0.5-0.3-0.7-0.7-0.4l-5.5,3.3c-0.4,0.2-0.7,0.8-0.7,1.3
		V75C76.8,75.4,77.1,75.6,77.5,75.4z"/>
	<path fill="#3A9CCE" d="M77.5,92.2l5.5-3.3c0.4-0.2,0.7-0.8,0.7-1.3v-7.2c0-0.5-0.3-0.7-0.7-0.4l-5.5,3.3c-0.4,0.2-0.7,0.8-0.7,1.3
		v7.2C76.8,92.3,77.1,92.5,77.5,92.2z"/>
	<path fill="#3A9CCE" d="M77.5,109l5.5-3.3c0.4-0.2,0.7-0.8,0.7-1.3v-7.2c0-0.5-0.3-0.7-0.7-0.4l-5.5,3.3c-0.4,0.2-0.7,0.8-0.7,1.3
		v7.2C76.8,109.1,77.1,109.3,77.5,109z"/>
	<path fill="#3A9CCE" d="M77.5,125.9l5.5-3.3c0.4-0.2,0.7-0.8,0.7-1.3V114c0-0.5-0.3-0.7-0.7-0.4l-5.5,3.3c-0.4,0.2-0.7,0.8-0.7,1.3
		v7.2C76.8,125.9,77.1,126.1,77.5,125.9z"/>
	<path fill="#3A9CCE" d="M31.8,121.2l5.5-3.3c0.4-0.2,0.7-0.8,0.7-1.3v-7.2c0-0.5-0.3-0.7-0.7-0.4l-5.5,3.3
		c-0.4,0.2-0.7,0.8-0.7,1.3v7.2C31,121.2,31.4,121.4,31.8,121.2z"/>
	<path fill="#3A9CCE" d="M83.1,139.4c0.4-0.2,0.7-0.8,0.7-1.3v-7.2c0-0.5-0.3-0.7-0.7-0.4l-5.5,3.3c-0.4,0.2-0.7,0.8-0.7,1.3v7.2
		c0,0.5,0.3,0.7,0.7,0.4L83.1,139.4z"/>
	<path fill="#3A9CCE" d="M128.6,88.8l-5.5,3.3c-0.4,0.2-0.7,0.8-0.7,1.3v7.2c0,0.5,0.3,0.7,0.7,0.4l5.5-3.3c0.4-0.2,0.7-0.8,0.7-1.3
		v-7.2C129.4,88.7,129.1,88.5,128.6,88.8z"/>
	<path fill="#3A9CCE" d="M128.6,105.6l-5.5,3.3c-0.4,0.2-0.7,0.8-0.7,1.3v7.2c0,0.5,0.3,0.7,0.7,0.4l5.5-3.3
		c0.4-0.2,0.7-0.8,0.7-1.3V106C129.4,105.5,129.1,105.3,128.6,105.6z"/>
	<path fill="#3A9CCE" d="M137.8,35.1L82.2,3c-2.4-1.4-5.6-2.2-8.9-2.2c-3.3,0-6.4,0.8-8.9,2.2L8.9,35.1C3.8,38,0,44.6,0,50.5v64.2
		c0,5.8,3.8,12.4,8.9,15.4l55.6,32.1c2.4,1.4,5.6,2.2,8.9,2.2c3.3,0,6.4-0.8,8.9-2.2l55.6-32.1c5.1-2.9,8.9-9.5,8.9-15.4V50.5
		C146.7,44.6,142.8,38,137.8,35.1z M45.4,139.1L14.1,121c-1.8-1.1-3.7-4.2-3.7-6.3V98.3l17.4-10.1c0.1,0,0.1,0,0.2,0l17.4,10.1
		V139.1z M90.8,145.1l-13.2,7.6l-0.6,0.3c-0.9,0.5-2.2,0.8-3.7,0.8c-1.4,0-2.8-0.3-3.7-0.8l-0.6-0.3l-13.3-7.7V56.3
		c0,0,0.1-0.1,0.1-0.1l17.2-9.9l4.5,2.4l13.2,7.6c0,0,0.1,0.1,0.1,0.1L90.8,145.1L90.8,145.1z M136.2,114.6c0,2.1-1.8,5.3-3.7,6.3
		l-31.1,17.9l-0.3,0.2v-0.4V81.2l17.4-10.1c0.1,0,0.1,0,0.2,0l17.5,10.1V114.6z M136.2,69.2l-12.4-7.2c-3-1.7-7.2-1.7-10.2,0
		l-12.4,7.1V56.1c0-3.5-2.1-7.1-5.1-8.8l-14-7.9c0,0-4.1-2.4-9-2.4c-4.8,0-8.6,2.3-8.6,2.3l-14,8c-3,1.7-5.1,5.4-5.1,8.8v30.2
		L33,79.1c-3-1.7-7.2-1.7-10.2,0l-12.4,7.1V50.5c0-2.1,1.8-5.3,3.7-6.3L69.7,12c0.9-0.5,2.2-0.8,3.7-0.8c1.4,0,2.8,0.3,3.7,0.8
		l55.6,32.1c1.8,1.1,3.7,4.2,3.7,6.3L136.2,69.2L136.2,69.2z"/>
</g>
<polygon fill="#E5E5E5" points="250.6,36 248.9,36 248.9,37.6 248.9,62 219.2,62 219.2,37.6 219.2,36 217.5,36 212,36 210.4,36 
	210.4,37.6 210.4,96.7 210.4,98.3 212,98.3 217.5,98.3 219.2,98.3 219.2,96.7 219.2,70.3 248.9,70.3 248.9,96.7 248.9,98.3 
	250.6,98.3 256.1,98.3 257.7,98.3 257.7,96.7 257.7,37.6 257.7,36 256.1,36 "/>
<path fill="#E5E5E5" d="M302.5,37l-0.4-1H301h-5.7h-1.1l-0.4,1L268,96l-1,2.3h2.5h5.8h1.1l0.4-1l6.2-14.7h29l6,14.6l0.4,1h1.1h6.2
	h2.5l-1-2.3L302.5,37z M286.7,74.3L297.9,48l10.9,26.4H286.7z"/>
<path fill="#E5E5E5" d="M369.8,39.4c-2-1.3-4.3-2.2-6.7-2.7c-2.4-0.5-4.6-0.7-6.8-0.7h-17h-1.7v1.7v59v1.7h1.7h5.5h1.7v-1.7V70.3
	h11.1c2.5,0,4.9-0.3,7.2-1c2.3-0.7,4.4-1.7,6.2-3.1c1.8-1.4,3.3-3.2,4.4-5.4c1.1-2.2,1.6-4.8,1.6-7.7c0-3.3-0.7-6.2-2-8.5
	C373.6,42.5,371.9,40.7,369.8,39.4z M367.3,49.2c0.6,1.1,0.9,2.4,0.9,4c0,1.7-0.3,3-0.9,4.1c-0.6,1.1-1.4,2-2.3,2.6
	c-1,0.7-2.2,1.2-3.4,1.5c-1.4,0.3-2.8,0.5-4.2,0.5h-10.8V44.3H357c1.4,0,2.8,0.2,4.3,0.5c1.3,0.3,2.5,0.9,3.6,1.6
	C365.8,47.2,366.6,48.1,367.3,49.2z"/>
<path fill="#E5E5E5" d="M420.8,39.4c-2-1.3-4.3-2.2-6.7-2.7c-2.4-0.5-4.6-0.7-6.8-0.7h-17h-1.7v1.7v59v1.7h1.7h5.5h1.7v-1.7V70.3
	h11.1c2.5,0,4.9-0.3,7.2-1c2.3-0.7,4.4-1.7,6.2-3.1c1.8-1.4,3.3-3.2,4.4-5.4c1.1-2.2,1.6-4.8,1.6-7.7c0-3.3-0.7-6.2-2-8.5
	C424.6,42.5,422.8,40.7,420.8,39.4z M418.2,49.2c0.6,1.1,0.9,2.4,0.9,4c0,1.7-0.3,3-0.9,4.1c-0.6,1.1-1.4,2-2.3,2.6
	c-1,0.7-2.2,1.2-3.4,1.5c-1.4,0.3-2.8,0.5-4.2,0.5h-10.8V44.3h10.5c1.4,0,2.8,0.2,4.3,0.5c1.3,0.3,2.5,0.9,3.6,1.6
	C416.7,47.2,417.5,48.1,418.2,49.2z"/>
<polygon fill="#E5E5E5" points="477.2,36 476.3,36 475.8,36.7 458.9,62.6 442.5,36.8 442,36 441.1,36 434.5,36 431.4,36 433.1,38.6 
	454.5,71.7 454.5,96.7 454.5,98.3 456.2,98.3 461.7,98.3 463.3,98.3 463.3,96.7 463.3,71.7 484.7,38.6 486.4,36 483.3,36 "/>
<path fill="#E5E5E5" d="M524.7,63.2H523v1.7v5v1.7h1.7h12.5v17.2c-1.9,1-4,1.7-6.2,2.1c-2.7,0.5-5.6,0.7-8.6,0.7
	c-3.6,0-6.9-0.6-9.7-1.9c-2.9-1.2-5.3-3-7.3-5.1c-2-2.2-3.6-4.7-4.7-7.7c-1.1-3-1.6-6.2-1.6-9.7c0-3.5,0.6-6.7,1.6-9.7
	c1.1-2.9,2.7-5.5,4.7-7.7c2-2.2,4.5-3.9,7.3-5.1c2.9-1.2,6.1-1.9,9.7-1.9c1.5,0,3,0.2,4.6,0.5c1.6,0.3,3.1,0.8,4.5,1.4
	c1.4,0.6,2.7,1.3,3.9,2.2c1.2,0.8,2.2,1.7,3,2.7l1.2,1.4l1.3-1.3l4-4.2l1.1-1.2l-1.1-1.2c-5.7-5.7-13.2-8.7-22.4-8.7
	c-4.7,0-9.1,0.8-13,2.5c-3.9,1.6-7.4,3.9-10.2,6.8c-2.8,2.9-5,6.4-6.6,10.3c-1.6,4-2.4,8.3-2.4,13c0,4.7,0.8,9.1,2.4,13.1
	c1.6,4,3.8,7.5,6.6,10.4c2.8,2.9,6.2,5.2,10.2,6.8c3.9,1.6,8.3,2.4,13,2.4c3.9,0,7.9-0.4,11.7-1.2c3.8-0.8,7.6-2.3,11.2-4.3l0.8-0.5
	v-1v-28v-1.7h-1.7H524.7z"/>
<path fill="#E5E5E5" d="M615.1,43.8c-2.8-2.9-6.2-5.2-10.2-6.8c-3.9-1.6-8.3-2.5-13-2.5c-4.7,0-9.1,0.8-13,2.5
	c-3.9,1.6-7.4,3.9-10.2,6.8c-2.8,2.9-5,6.4-6.6,10.3c-1.6,4-2.4,8.3-2.4,13c0,4.7,0.8,9.1,2.4,13.1c1.6,4,3.8,7.5,6.6,10.4
	c2.8,2.9,6.2,5.2,10.2,6.8c3.9,1.6,8.3,2.4,13,2.4c4.7,0,9.1-0.8,13-2.4c4-1.6,7.4-3.9,10.2-6.8c2.8-2.9,5-6.4,6.6-10.4
	c1.6-4,2.4-8.4,2.4-13.1c0-4.7-0.8-9.1-2.4-13C620.2,50.2,617.9,46.7,615.1,43.8z M591.9,91.5c-3.6,0-6.9-0.6-9.7-1.9
	c-2.9-1.2-5.3-3-7.3-5.1c-2-2.2-3.6-4.7-4.7-7.7c-1.1-3-1.6-6.2-1.6-9.7c0-3.5,0.6-6.7,1.6-9.7c1.1-2.9,2.7-5.5,4.7-7.7
	c2-2.2,4.5-3.9,7.3-5.1c2.9-1.2,6.1-1.9,9.7-1.9c3.6,0,6.9,0.6,9.7,1.9c2.9,1.2,5.3,3,7.3,5.1c2,2.2,3.6,4.8,4.7,7.7
	c1.1,3,1.6,6.2,1.6,9.7c0,3.5-0.6,6.7-1.6,9.7c-1.1,2.9-2.7,5.5-4.7,7.7c-2,2.2-4.5,3.9-7.3,5.1C598.8,90.9,595.5,91.5,591.9,91.5z"
	/>
<polygon fill="#E5E5E5" points="681.1,36 675.3,36 674.1,36 673.7,37.1 656.1,84.6 638.6,37.1 638.2,36 637.1,36 631.2,36 628.8,36 
	629.6,38.2 651.6,97.3 652,98.3 653.2,98.3 658.7,98.3 659.8,98.3 660.2,97.3 682.7,38.2 683.5,36 "/>
<polygon fill="#3A9CCE" points="246.2,33.8 244.6,33.8 244.6,35.5 244.6,59.8 214.9,59.8 214.9,35.5 214.9,33.8 213.2,33.8 
	207.7,33.8 206,33.8 206,35.5 206,94.5 206,96.2 207.7,96.2 213.2,96.2 214.9,96.2 214.9,94.5 214.9,68.2 244.6,68.2 244.6,94.5 
	244.6,96.2 246.2,96.2 251.7,96.2 253.4,96.2 253.4,94.5 253.4,35.5 253.4,33.8 251.7,33.8 "/>
<path fill="#3A9CCE" d="M298.2,34.8l-0.4-1h-1.1H291h-1.1l-0.4,1l-25.8,59l-1,2.3h2.5h5.8h1.1l0.4-1l6.2-14.7h29l6,14.6l0.4,1h1.1
	h6.2h2.5l-1-2.3L298.2,34.8z M282.3,72.2l11.2-26.4l10.9,26.4H282.3z"/>
<polygon fill="#3A9CCE" points="472.8,33.8 471.9,33.8 471.4,34.6 454.6,60.4 438.2,34.6 437.7,33.8 436.7,33.8 430.2,33.8 
	427.1,33.8 428.8,36.4 450.2,69.6 450.2,94.5 450.2,96.2 451.8,96.2 457.3,96.2 459,96.2 459,94.5 459,69.6 480.4,36.4 482.1,33.8 
	479,33.8 "/>
<path fill="#D31400" d="M520.3,61h-1.7v1.7v5v1.7h1.7h12.5v17.2c-1.9,1-4,1.7-6.2,2.1c-2.7,0.5-5.6,0.7-8.6,0.7
	c-3.6,0-6.9-0.6-9.7-1.9c-2.9-1.2-5.3-3-7.3-5.1c-2-2.2-3.6-4.7-4.7-7.7c-1.1-3-1.6-6.2-1.6-9.7c0-3.5,0.6-6.7,1.6-9.7
	c1.1-2.9,2.7-5.5,4.7-7.7c2-2.2,4.5-3.9,7.3-5.1c2.9-1.2,6.1-1.9,9.7-1.9c1.5,0,3,0.2,4.6,0.5c1.6,0.3,3.1,0.8,4.5,1.4
	c1.4,0.6,2.7,1.3,3.9,2.2c1.2,0.8,2.2,1.7,3,2.7l1.2,1.4l1.3-1.3l4-4.2l1.1-1.2l-1.1-1.2c-5.7-5.7-13.2-8.7-22.4-8.7
	c-4.7,0-9.1,0.8-13,2.5c-3.9,1.6-7.4,3.9-10.2,6.8c-2.8,2.9-5,6.4-6.6,10.3c-1.6,4-2.4,8.3-2.4,13c0,4.7,0.8,9.1,2.4,13.1
	c1.6,4,3.8,7.5,6.6,10.4c2.8,2.9,6.2,5.2,10.2,6.8c3.9,1.6,8.3,2.4,13,2.4c3.9,0,7.9-0.4,11.7-1.2c3.8-0.8,7.6-2.3,11.2-4.3l0.8-0.5
	v-1v-28V61H540H520.3z"/>
<path fill="#D31400" d="M610.8,41.6c-2.8-2.9-6.2-5.2-10.2-6.8c-3.9-1.6-8.3-2.5-13-2.5c-4.7,0-9.1,0.8-13,2.5
	c-3.9,1.6-7.4,3.9-10.2,6.8c-2.8,2.9-5,6.4-6.6,10.3c-1.6,4-2.4,8.3-2.4,13c0,4.7,0.8,9.1,2.4,13.1c1.6,4,3.8,7.5,6.6,10.4
	c2.8,2.9,6.2,5.2,10.2,6.8c3.9,1.6,8.3,2.4,13,2.4c4.7,0,9.1-0.8,13-2.4c4-1.6,7.4-3.9,10.2-6.8c2.8-2.9,5-6.4,6.6-10.4
	c1.6-4,2.4-8.4,2.4-13.1c0-4.7-0.8-9.1-2.4-13C615.8,48,613.6,44.5,610.8,41.6z M587.6,89.3c-3.6,0-6.9-0.6-9.7-1.9
	c-2.9-1.2-5.3-3-7.3-5.1c-2-2.2-3.6-4.7-4.7-7.7c-1.1-3-1.6-6.2-1.6-9.7c0-3.5,0.6-6.7,1.6-9.7c1.1-2.9,2.7-5.5,4.7-7.7
	c2-2.2,4.5-3.9,7.3-5.1c2.9-1.2,6.1-1.9,9.7-1.9c3.6,0,6.9,0.6,9.7,1.9c2.9,1.2,5.3,3,7.3,5.1c2,2.2,3.6,4.8,4.7,7.7
	c1.1,3,1.6,6.2,1.6,9.7c0,3.5-0.6,6.7-1.6,9.7c-1.1,2.9-2.7,5.5-4.7,7.7c-2,2.2-4.5,3.9-7.3,5.1C594.5,88.7,591.2,89.3,587.6,89.3z"
	/>
<polygon fill="#D31400" points="676.8,33.8 670.9,33.8 669.8,33.8 669.4,34.9 651.8,82.4 634.3,34.9 633.9,33.8 632.8,33.8 
	626.8,33.8 624.4,33.8 625.3,36.1 647.3,95.1 647.7,96.2 648.8,96.2 654.3,96.2 655.5,96.2 655.9,95.1 678.3,36.1 679.2,33.8 "/>
<path fill="#3A9CCE" d="M356.9,33.8h-14.8h-8.8h0v60.7v1.7h1.7h5.5h1.7v-1.7V69.6h14.8c9.9,0,17.9-8,17.9-17.9
	S366.8,33.8,356.9,33.8z M356.9,60.3h-14.8V43.1h14.8c4.8,0,8.6,3.9,8.6,8.6S361.7,60.3,356.9,60.3z"/>
<path fill="#3A9CCE" d="M408.5,33.8h-14.8h-8.8h0v60.7v1.7h1.7h5.5h1.7v-1.7V69.6h14.8c9.9,0,17.9-8,17.9-17.9
	S418.4,33.8,408.5,33.8z M408.5,60.3h-14.8V43.1h14.8c4.8,0,8.6,3.9,8.6,8.6S413.3,60.3,408.5,60.3z"/>
<rect x="511.9" y="137.6" fill="#E5E5E5" width="171.3" height="2.4"/>
<rect x="206" y="137.6" fill="#E5E5E5" width="164.4" height="2.4"/>
<g>
	<path fill="#3D3D3D" d="M391.1,127.8c0.1-0.6,0.1-1.1,0.1-1.5c0-0.4-0.1-0.7-0.3-0.9c-0.2-0.2-0.4-0.4-0.8-0.5s-0.7-0.2-1.2-0.2
		c-0.1-0.3-0.1-0.5-0.1-0.8s0-0.5,0.1-0.8c0.8,0,1.6,0.1,2.6,0.1c0.9,0,1.8,0,2.5,0c0.8,0,1.6,0,2.4-0.1c0.8,0,1.6-0.1,2.3-0.1
		c1.1,0,2.2,0.1,3.3,0.2c1.1,0.1,2.2,0.4,3.1,0.8c1,0.4,1.9,0.9,2.7,1.5c0.8,0.6,1.5,1.4,2,2.4c0.5,1,0.9,2.1,1,3.5
		c0.1,1.4,0,2.9-0.3,4.7c-0.4,2-1,3.8-1.9,5.3s-2.1,2.7-3.5,3.7c-1.4,1-3,1.7-4.8,2.2c-1.8,0.5-3.7,0.7-5.9,0.7h-0.1
		c-0.7,0-1.4,0-2.2,0s-1.6,0-2.4,0c-0.8,0-1.6,0-2.4,0c-0.8,0-1.6,0-2.3,0.1c0-0.6,0.1-1.1,0.3-1.6c0.5-0.1,1-0.2,1.4-0.3
		c0.4-0.1,0.6-0.3,0.9-0.6c0.2-0.3,0.4-0.6,0.5-1.1c0.1-0.5,0.3-1.1,0.4-1.8L391.1,127.8z M391.9,143.4c-0.1,0.7-0.2,1.2-0.2,1.7
		s0.1,0.7,0.3,1c0.2,0.2,0.5,0.4,0.9,0.5c0.4,0.1,1,0.1,1.7,0.1c1.5,0,2.9-0.2,4.2-0.6c1.3-0.4,2.5-1,3.5-1.8c1-0.8,1.9-1.8,2.7-3.1
		c0.7-1.3,1.3-2.8,1.6-4.6c0.4-2.3,0.5-4.2,0.2-5.7c-0.3-1.5-0.9-2.7-1.8-3.6c-0.9-0.9-1.9-1.6-3.2-1.9c-1.3-0.4-2.7-0.6-4.1-0.6
		c-0.5,0-0.9,0-1.4,0.1c-0.4,0-0.8,0.1-1.3,0.2L391.9,143.4z"/>
	<path fill="#3D3D3D" d="M421.5,131c0.7,0,1.4,0.1,1.9,0.4c0.5,0.2,0.9,0.5,1.1,0.9c0.3,0.4,0.4,0.8,0.5,1.3c0.1,0.5,0,1-0.1,1.5
		c-0.1,0.8-0.5,1.5-1.1,2.1c-0.6,0.6-1.3,1.2-2.1,1.7c-0.8,0.5-1.7,0.8-2.6,1.1s-1.8,0.4-2.5,0.4c-0.1,0.6-0.1,1.3-0.1,1.9
		c0,0.6,0.1,1.2,0.2,1.7c0.1,0.5,0.4,0.9,0.7,1.3c0.3,0.3,0.8,0.5,1.3,0.5c0.5,0,1.2-0.2,1.9-0.5c0.7-0.3,1.3-0.8,1.9-1.5
		c0.4,0.3,0.6,0.6,0.8,1.1c-0.3,0.4-0.8,0.9-1.2,1.3c-0.5,0.4-1,0.8-1.6,1.2c-0.6,0.3-1.1,0.6-1.7,0.8c-0.6,0.2-1.2,0.3-1.8,0.3
		c-1,0-1.8-0.3-2.4-0.8c-0.6-0.5-1-1.2-1.2-2c-0.2-0.8-0.4-1.7-0.3-2.7c0-1,0.2-2,0.4-3c0.3-1.4,0.7-2.7,1.3-3.8
		c0.6-1.1,1.3-2.1,2-2.9c0.8-0.8,1.6-1.4,2.4-1.8C419.9,131.2,420.7,131,421.5,131z M416.7,139.1c0.6,0,1.2-0.1,1.8-0.3
		c0.6-0.2,1.1-0.4,1.6-0.7c0.5-0.3,0.9-0.7,1.2-1.1c0.3-0.4,0.5-0.9,0.6-1.4c0.1-0.3,0.1-0.6,0-0.9c0-0.3-0.1-0.6-0.2-0.8
		c-0.1-0.3-0.3-0.5-0.6-0.6c-0.2-0.2-0.5-0.2-0.9-0.2c-0.7,0-1.4,0.5-2.1,1.4c-0.7,0.9-1.1,2.2-1.4,3.8L416.7,139.1z"/>
	<path fill="#3D3D3D" d="M441.6,142.6c-0.2,0.8-0.3,1.5-0.4,2c-0.1,0.5-0.2,0.8-0.2,1c0,0.2,0,0.4,0.1,0.4s0.2,0.1,0.4,0.1
		c0.3,0,0.6-0.1,1-0.4c0.4-0.2,0.8-0.5,1.1-0.8c0.3,0.3,0.6,0.7,0.7,1.2c-0.8,0.8-1.6,1.5-2.2,1.9s-1.3,0.6-2,0.6
		c-0.7,0-1.3-0.1-1.6-0.4c-0.3-0.3-0.6-0.7-0.6-1.2c-0.1-0.5-0.1-1.1,0.1-1.9c0.1-0.7,0.3-1.6,0.5-2.5l1-4.4
		c0.2-0.9,0.4-1.7,0.4-2.3c0-0.6,0-1.1-0.1-1.4c-0.1-0.3-0.2-0.6-0.4-0.7c-0.2-0.1-0.5-0.2-0.7-0.2c-0.4,0-0.9,0.2-1.5,0.7
		c-0.6,0.5-1.2,1.2-1.8,2c-0.6,0.9-1.2,1.9-1.7,3.1c-0.5,1.2-1,2.5-1.2,4l-0.9,4.8h-3.4l2-10.8c0.1-0.9,0.2-1.5,0.3-2
		c0-0.5,0-0.8-0.1-1.1c-0.1-0.2-0.4-0.4-0.7-0.4c-0.3,0-0.8-0.1-1.4-0.1c0-0.3,0-0.5,0-0.8c0-0.2,0.1-0.5,0.2-0.6
		c0.3,0,0.7-0.1,1.1-0.2c0.5-0.1,0.9-0.2,1.4-0.4c0.5-0.1,1-0.3,1.4-0.5c0.4-0.2,0.8-0.3,1.1-0.5c0.7,0.2,1,1,0.8,2.4
		c-0.2,1.1-0.4,1.9-0.6,2.6c-0.2,0.7-0.5,1.4-0.8,2h0l0.6-1.3c0.3-0.6,0.7-1.2,1.3-1.9c0.5-0.7,1.2-1.3,1.8-1.9
		c0.7-0.6,1.4-1.1,2.1-1.4c0.7-0.4,1.4-0.6,2.1-0.6c0.4,0,0.8,0.1,1.2,0.3c0.4,0.2,0.7,0.6,1,1.1c0.3,0.5,0.4,1.2,0.5,2.2
		c0,0.9-0.1,2.1-0.5,3.6L441.6,142.6z"/>
	<path fill="#3D3D3D" d="M461.2,131c0.7,0.3,1.2,0.7,1.6,1.3c0.4,0.6,0.6,1.4,0.6,2.5c0,0.7-0.1,1.5-0.4,2.4c-0.3,0.9-0.8,1.9-1.5,3
		c-0.7,1.1-1.6,2.4-2.8,3.7c-1.2,1.4-2.6,3-4.4,4.7c-0.7,0-1.3-0.1-1.8-0.3c-0.1-2.3-0.4-4.5-0.7-6.6c-0.3-2.1-0.7-3.9-1.1-5.4
		c-0.1-0.4-0.2-0.8-0.4-1.1c-0.1-0.3-0.3-0.6-0.4-0.7s-0.4-0.3-0.7-0.4c-0.3-0.1-0.7-0.1-1.1-0.1c0-0.1,0-0.3,0-0.6
		c0-0.3,0.1-0.6,0.1-0.8c0.6-0.1,1.3-0.3,2-0.6s1.3-0.6,1.7-0.9c0.3,0.1,0.6,0.3,0.8,0.4c0.2,0.2,0.4,0.4,0.5,0.7
		c0.1,0.3,0.3,0.7,0.4,1.2c0.1,0.5,0.2,1.1,0.4,1.8c0.2,0.9,0.3,1.8,0.5,2.7c0.1,0.9,0.3,1.9,0.4,2.8c0.1,0.9,0.2,1.8,0.3,2.6
		c0.1,0.8,0.2,1.6,0.2,2.3c1.6-1.9,2.8-3.5,3.5-5c0.8-1.5,1.1-2.7,1.1-3.6c0-1-0.2-1.7-0.5-2.1c-0.3-0.4-0.9-0.7-1.7-0.8
		c-0.2-0.4-0.3-0.9-0.2-1.4c0.3-0.1,0.7-0.2,1-0.4c0.4-0.1,0.7-0.3,1.1-0.4c0.3-0.1,0.6-0.3,0.9-0.4
		C460.8,131.2,461,131.1,461.2,131z"/>
	<path fill="#3D3D3D" d="M474.9,131c0.7,0,1.4,0.1,1.9,0.4c0.5,0.2,0.9,0.5,1.1,0.9c0.3,0.4,0.4,0.8,0.5,1.3c0.1,0.5,0,1-0.1,1.5
		c-0.1,0.8-0.5,1.5-1.1,2.1c-0.6,0.6-1.3,1.2-2.1,1.7c-0.8,0.5-1.7,0.8-2.6,1.1s-1.8,0.4-2.5,0.4c-0.1,0.6-0.1,1.3-0.1,1.9
		c0,0.6,0.1,1.2,0.2,1.7c0.1,0.5,0.4,0.9,0.7,1.3c0.3,0.3,0.8,0.5,1.3,0.5c0.5,0,1.2-0.2,1.9-0.5c0.7-0.3,1.3-0.8,1.9-1.5
		c0.4,0.3,0.6,0.6,0.8,1.1c-0.3,0.4-0.8,0.9-1.2,1.3c-0.5,0.4-1,0.8-1.6,1.2c-0.6,0.3-1.1,0.6-1.7,0.8c-0.6,0.2-1.2,0.3-1.8,0.3
		c-1,0-1.8-0.3-2.4-0.8c-0.6-0.5-1-1.2-1.2-2c-0.2-0.8-0.4-1.7-0.3-2.7c0-1,0.2-2,0.4-3c0.3-1.4,0.7-2.7,1.3-3.8
		c0.6-1.1,1.3-2.1,2-2.9c0.8-0.8,1.6-1.4,2.4-1.8C473.3,131.2,474.1,131,474.9,131z M470.1,139.1c0.6,0,1.2-0.1,1.8-0.3
		c0.6-0.2,1.1-0.4,1.6-0.7c0.5-0.3,0.9-0.7,1.2-1.1c0.3-0.4,0.5-0.9,0.6-1.4c0.1-0.3,0.1-0.6,0-0.9c0-0.3-0.1-0.6-0.2-0.8
		c-0.1-0.3-0.3-0.5-0.6-0.6c-0.2-0.2-0.5-0.2-0.9-0.2c-0.7,0-1.4,0.5-2.1,1.4c-0.7,0.9-1.1,2.2-1.4,3.8L470.1,139.1z"/>
	<path fill="#3D3D3D" d="M483.1,137.5c0.2-0.9,0.3-1.5,0.3-2c0-0.5,0-0.8-0.1-1.1c-0.1-0.2-0.3-0.4-0.7-0.4s-0.8-0.1-1.4-0.1
		c0-0.3,0-0.5,0-0.8c0-0.2,0.1-0.5,0.2-0.6c0.3,0,0.7-0.1,1.1-0.2c0.5-0.1,0.9-0.2,1.4-0.4c0.5-0.1,0.9-0.3,1.4-0.5
		c0.4-0.2,0.8-0.3,1.1-0.5c0.7,0.2,1,1,0.7,2.4c-0.2,1.3-0.8,2.9-1.6,4.9h0.1l0.6-1.4c0.4-0.8,0.8-1.6,1.3-2.3
		c0.5-0.7,1-1.3,1.5-1.9c0.5-0.5,1-1,1.6-1.3c0.5-0.3,1-0.5,1.5-0.5c0.5,0,0.9,0.1,1.2,0.2s0.6,0.3,0.9,0.5
		c-0.3,0.6-0.5,1.3-0.7,2.1c-0.2,0.8-0.3,1.5-0.3,2.2c-0.4,0.2-0.9,0.3-1.6,0.3c0-0.5-0.1-1-0.1-1.3c0-0.3-0.1-0.6-0.2-0.8
		c-0.1-0.2-0.2-0.3-0.3-0.3c-0.1,0-0.2-0.1-0.4-0.1c-0.3,0-0.7,0.3-1.2,0.8c-0.5,0.5-0.9,1.2-1.5,2.2c-0.8,1.4-1.4,2.8-1.9,4
		c-0.5,1.3-0.9,2.7-1.2,4.2l-0.6,3.3H481L483.1,137.5z"/>
</g>
</svg>
